<svg xmlns="http://www.w3.org/2000/svg" width="470" height="48.992" viewBox="0 0 470 48.992"><defs><style>.a{fill:#e60020;}</style></defs><g transform="translate(-310 -6754.027)"><g transform="translate(446.819 6754.027)"><path d="M362.333,3.621h-1.788V.4h-3.507V3.551h-2.063V6.981h1.994a20.782,20.782,0,0,1-2.269,5.741v5.251a13.286,13.286,0,0,0,2.338-4.061v7.912h3.507V11.673a14.291,14.291,0,0,0,1.788,2.731V9.852a22.9,22.9,0,0,1-1.65-2.8h1.65Z" transform="translate(-110.78 -0.121)"/><path d="M375.121,12.513H378.7V8.8h-4.264V6.771h3.576V3.131h-3.576V.4h-3.507V3.131h-.757a7.82,7.82,0,0,0,.275-1.96h-2.888a6.006,6.006,0,0,1-1.1,3.291v4.2a7.493,7.493,0,0,0,2.063-1.82h2.407V8.8h-4.47v3.711h3.713a14.638,14.638,0,0,1-4.47,4.621v4.2a14.125,14.125,0,0,0,5.158-4.9v5.391h3.507V16.434a12.427,12.427,0,0,0,4.607,4.691V16.854a15.832,15.832,0,0,1-3.851-4.341" transform="translate(-114.216 -0.121)"/><path d="M416.214,2.991h-3.095L412.5.4h3.094Z" transform="translate(-128.832 -0.121)"/><path d="M404.9,7.332h4.126V3.691H404.9V.4h-3.782V3.691H389.7V7.332h11.415c.275,9.1,2.82,13.513,8.046,14.423V17.9c-3.713-1.33-4.264-6.3-4.264-10.572" transform="translate(-121.711 -0.121)"/><path d="M397,20.912V16.641h3.163V13h-9.971v3.641h3.163v4.691c-1.375.14-2.751.21-3.851.28v3.781a101.169,101.169,0,0,0,11.484-1.26V20.422c-1.031.07-2.476.28-3.989.49" transform="translate(-121.648 -3.898)"/><path d="M441.574,5.231c-4.126-1.47-6.739-3.081-8.183-4.831h-3.645c-1.032,1.33-2.82,3.221-8.046,5.041V9.362a22.34,22.34,0,0,0,3.438-1.19v1.61h13.41V8.032a22.338,22.338,0,0,0,3.026,1.05Zm-13.135,1.19a18.382,18.382,0,0,0,3.37-2.661,12.983,12.983,0,0,0,3.507,2.661Z" transform="translate(-131.705 -0.121)"/><path d="M442.012,26.292a54.107,54.107,0,0,0-3.782-6.161H433.9c.344.49.825,1.12,1.307,1.89-1.444.14-3.645.21-5.983.28l1.719-3.011H441.6V16H422v3.291h4.4l-1.788,3.081h-2.407v3.641a112.119,112.119,0,0,0,14.923-.84c.206.42.412.84.619,1.19h4.264" transform="translate(-131.799 -4.798)"/><path d="M461.621,10.162a16.319,16.319,0,0,0,2.132-3.571V3.3h-2.888V.5h-3.576V3.3h-2.544V6.731h5.226A13.051,13.051,0,0,1,454.4,11.7v4.271a11.992,11.992,0,0,0,2.957-1.54v7.422h3.576v-8.4a7.129,7.129,0,0,0,3.851,2.8V12.333a10.669,10.669,0,0,1-3.163-2.17" transform="translate(-141.918 -0.15)"/><path d="M475.515,17.654V10.232h3.3V6.591h-3.3V.5h-3.576V6.591h-3.645v3.641h3.645v7.422H467.4v3.641h11.759V17.654Z" transform="translate(-145.979 -0.15)"/><path d="M29.6,21.785V17.654H43.973V13.593H29.944V9.6H43.973V5.961H29.6V1.9H48.58V21.785Z" transform="translate(-9.245 -0.57)"/><path d="M114.409,12.363v2.731c0,1.68.344,2.451,2.544,2.451h7.633v3.991h-9.352c-3.645,0-5.3-1.68-5.3-5.111V12.363H104.3V8.372h5.639V5.221h-4.676V1.3h19.186V5.221h-10.04V8.442h11.072v3.921Z" transform="translate(-32.575 -0.39)"/><path d="M65.245,1.47h0c-.963,3.571-1.857,5.181-4.745,6.581v4.271c4.195-1.26,6.464-3.5,7.7-6.862h8.527v1.68a11.793,11.793,0,0,1-.206,2.241H66.483V13.3H74.8c-1.994,2.731-5.639,4.691-11.415,4.761v3.991c15.542-.21,18.017-10.012,18.017-15.544V1.4H65.245" transform="translate(-18.895 -0.42)"/><path d="M158.5.1h2.476V3.461H158.5Zm3.507,0h2.476V3.461h-2.476Z" transform="translate(-49.503 -0.03)"/><path d="M146.346,17.294c-1.719,0-2.544-.42-2.544-2.241V9.1h14.166V5.041H143.8V.7h-4.4V15.893c0,3.991,1.788,5.391,5.914,5.391h12.928V17.224h-11.9" transform="translate(-43.537 -0.21)"/><path d="M18.086,9.172H4.4V.7H0V21.985H4.4V13.233H18.086Z" transform="translate(0 -0.21)"/><rect width="14.716" height="4.481" transform="translate(203.141 8.752)"/><rect width="4.401" height="12.603" transform="translate(117.524 0.63)"/><path d="M190.485.9v9.172c0,5.741-2.819,11.413-15.885,11.413V17.494c10.59,0,11.347-4.691,11.347-7V.9Z" transform="translate(-54.531 -0.27)"/><rect width="18.155" height="3.991" transform="translate(140.012 0.84)"/><path d="M222.3,10.4H201.6v3.991h9.077v1.05c0,2.8-2.269,5.181-7.014,5.181v4.061c7.427-.35,11.622-3.851,11.622-9.872v-.42H222.3V10.4" transform="translate(-62.964 -3.118)"/><path d="M234.7,11.9v3.991l7.427-2.661v9.732h4.195V11.621l5.845-2.03V5.6Z" transform="translate(-73.302 -1.679)"/><path d="M292.263,6.441A3.184,3.184,0,0,1,289.1,3.221a3.164,3.164,0,1,1,6.327,0,3.228,3.228,0,0,1-3.163,3.221m0-4.271a1.1,1.1,0,0,0-1.1,1.12,1.1,1.1,0,1,0,2.2,0,1.1,1.1,0,0,0-1.1-1.12" transform="translate(-90.292)"/><rect width="4.401" height="8.542" transform="translate(227.347 0.84)"/><rect width="4.401" height="8.542" transform="translate(220.745 0.84)"/><path d="M342.286,1.2v9.172c0,5.741-2.82,11.413-15.885,11.413V17.794c10.59,0,11.347-4.691,11.347-7V1.2Z" transform="translate(-101.942 -0.36)"/><path d="M264.876.9,261.3,21.555h4.47L269.346.9Z" transform="translate(-81.609 -0.27)"/><path d="M280.2.9l3.576,20.655h4.47L284.67.9Z" transform="translate(-87.512 -0.27)"/></g><g transform="translate(446.819 6781.033)"><path d="M505.027,14.027a34.1,34.1,0,0,1-3.516,7.862l-2.225-2.81a30.809,30.809,0,0,0,3.249-6.933Zm-3.894-7.794a11.91,11.91,0,0,1,3.583,2.424l-1.981,2.628a14.1,14.1,0,0,0-3.383-2.424Zm2.715,12.348c.511.023.8.046,1.246.046.512-.793,1.313-2.266,1.937-3.421a30.052,30.052,0,0,0-3.339-3.6l1.6-2.809c.246.2.289.249.49.407a28.742,28.742,0,0,0,1.2-2.855h-2.2V3.469l-1.446,2.016a14.812,14.812,0,0,0-3.516-2.357L501.51.613a12.1,12.1,0,0,1,3.739,2.2l-.312.453h3.2c-.111-.5-.689-2.016-.778-2.22l3.293-.612a14.956,14.956,0,0,1,.913,2.832h2.538A13.768,13.768,0,0,0,515,.432l3.494.5a15.879,15.879,0,0,1-1.069,2.334h3.249V6.346h-3.694a50.33,50.33,0,0,1-2.048,4.985c.245.272.512.59.89,1.065a31.221,31.221,0,0,0,1.669-4.124l2.8,1.11a58.149,58.149,0,0,1-4.607,9.154c.267-.046,1.58-.227,1.869-.272a16.874,16.874,0,0,0-.422-1.993l2.514-.635a23.528,23.528,0,0,1,1.179,5.846L518,22.161c-.022-.408-.044-.748-.111-1.292-1.224.272-3.872.634-5.43.838l-.044-.249-1.825.431c0-.136-.045-.793-.067-.952-.289.068-4.406.725-6.253.86Zm8.167-9.335.223-.476c.333.272.423.363.668.544.445-1.088.756-1.972,1.09-2.969h-4.161a29.451,29.451,0,0,1-2.136,4.872c.245.272.534.634.824,1A42.065,42.065,0,0,0,510.278,8.2Zm.045,6.367a14.4,14.4,0,0,1,.757,2.606c.8-1.36,1.223-2.2,1.513-2.764-.4-.476-1.557-1.881-2.693-2.991a61.2,61.2,0,0,1-3.494,6.027c.334-.023,1.8-.113,2.115-.159-.155-.952-.334-1.654-.467-2.2Z" transform="translate(-499.285 -0.387)"/><path d="M551.189,8.32v9.946h-3.784a19.756,19.756,0,0,0,5.9,1l-1.38,2.878a23.521,23.521,0,0,1-7.766-2.085l1.736-1.79h-6.61l1.58,1.79a26.083,26.083,0,0,1-7.677,2.063l-1.313-2.832a22.451,22.451,0,0,0,6.165-1.02h-4.05v-9.4c-.356.227-.512.317-.846.5L531.8,6.3a6.327,6.327,0,0,0,2.648-2.2h-2.381V1.545h3.25c.067-.408.089-.7.133-1.178l3.182.113c-.045.431-.045.634-.112,1.065h4.3a22.214,22.214,0,0,1-.645,5.505,1.728,1.728,0,0,1-1.469,1.269Zm-13.486,0-.445-2.583h1.558c.6,0,.779-.2.912-1.631H537.9a9.334,9.334,0,0,1-3.138,4.214Zm10.17,2.039H537.28v.816h10.593Zm0,2.425H537.28v.861h10.593Zm0,2.469H537.28v.884h10.593Zm4.651-7.817h-8.7V1.092h8.7Zm-3.07-3.988H546.8V5.057h2.648Z" transform="translate(-509.442 -0.367)"/><path d="M584.4,22.067a26.732,26.732,0,0,1-9.458-2.787,28.9,28.9,0,0,1-9.169,2.877l-1.38-3.693a25.979,25.979,0,0,0,7.188-1.518,20.538,20.538,0,0,1-3.716-4.192l2.337-1.337h-4.051V8.065h7.144V6H564.5V2.581h8.791V.5h3.428V2.581h8.857V6h-8.857V8.065h6.342V11.44a17.325,17.325,0,0,1-4.629,5.552,23.515,23.515,0,0,0,7.3,1.337ZM571.2,11.418a15.13,15.13,0,0,0,3.761,3.739,17.311,17.311,0,0,0,3.85-3.739Z" transform="translate(-519.618 -0.405)"/><path d="M602.946,22.082h-3.383V14.537a27.391,27.391,0,0,1-2.359,1.813l-.846-4.011A15.55,15.55,0,0,0,601.634,6.9H596.76V3.731h2.8V.626h3.383v3.1h2.27V6.9a14.978,14.978,0,0,1-1.78,3.285,11.093,11.093,0,0,0,3.048,2.425l-1.669,3.24a12.931,12.931,0,0,1-1.869-2.175ZM609.556.626h3.472V6.245h4.34V9.734h-4.34v8.293H617.7v3.444H604.46V18.027h5.1V9.734h-4.005V6.245h4.005Z" transform="translate(-529.603 -0.444)"/></g><g transform="translate(310 6754.027)"><path d="M178.477,4.6h7.039V1.88H172.1V4.6h3.249V6.787H171.42V9.527h3.928v2.787c0,2.364,1.191,3.5,3.725,3.5h6.53V13.055h-5.339c-1.548,0-1.787-.512-1.787-1.668V9.518h7.742V6.778h-7.742Z" transform="translate(-120.376 -1.32)"/><rect width="1.751" height="2.296" transform="translate(77.105)"/><rect width="1.751" height="2.296" transform="translate(79.552)"/><path d="M231.271,10.805V6.7h9.916V3.936h-9.916v-3H228.21V11.4c0,2.737,1.26,3.722,4.151,3.722l9.046.018v-2.8H233.07C231.834,12.336,231.271,12.029,231.271,10.805Z" transform="translate(-160.256 -0.66)"/><rect width="10.285" height="3.094" transform="translate(67.832 25.281)"/><rect width="3.094" height="8.656" transform="translate(83.093 0.408)"/><path d="M293.042,7.957c0,1.6-.515,4.824-7.942,4.824v2.742c9.13,0,11.095-3.939,11.095-7.858V1.37h-3.153Z" transform="translate(-200.206 -0.962)"/><rect width="12.682" height="2.739" transform="translate(98.791 0.545)"/><path d="M328.52,19.282h6.334v.709c0,1.921-1.59,3.543-4.907,3.543v2.8c5.205-.256,8.144-2.653,8.144-6.789v-.268h4.925V16.56h-14.5Z" transform="translate(-230.696 -11.629)"/><path d="M382.11,15.934l5.172-1.813v6.673H390.2V13l4.112-1.376V8.85l-12.2,4.35Z" transform="translate(-268.329 -6.215)"/><path d="M221.975,67.09a2.2,2.2,0,1,0-2.186,2.195A2.2,2.2,0,0,0,221.975,67.09Zm-2.186.762a.762.762,0,1,1,.759-.762A.762.762,0,0,1,219.789,67.853Z" transform="translate(-152.791 -45.568)"/><rect width="3.094" height="5.848" transform="translate(84.754 19.864)"/><rect width="3.094" height="5.848" transform="translate(80.112 19.864)"/><path d="M285.9,73.309c0,1.6-.515,4.824-7.941,4.824v2.742c9.13,0,11.095-3.939,11.095-7.861v-6.3H285.9Z" transform="translate(-195.192 -46.846)"/><path d="M175.118,66.25l-2.5,14.171h3.141l2.5-14.171Z" transform="translate(-121.219 -46.523)"/><path d="M203.2,66.25l2.5,14.171h3.144l-2.5-14.171Z" transform="translate(-142.693 -46.523)"/><path class="a" d="M177.171,131.85H171.01v1.361h2.275v5.81H174.9v-5.81h2.275Z" transform="translate(-120.088 -92.589)"/><path class="a" d="M198.574,136.079a1.974,1.974,0,0,1-1.489,1.218,2.227,2.227,0,0,1-.375.033,2.2,2.2,0,0,1-.372-.033,1.968,1.968,0,0,1-1.489-1.218,3.156,3.156,0,0,1,0-2.3,1.968,1.968,0,0,1,1.489-1.218,2.19,2.19,0,0,1,.372-.033,2.221,2.221,0,0,1,.375.033,1.974,1.974,0,0,1,1.489,1.218,3.156,3.156,0,0,1,0,2.3m-1.864-4.949a3.8,3.8,0,1,0,3.8,3.8,3.8,3.8,0,0,0-3.8-3.8" transform="translate(-135.467 -92.083)"/><path class="a" d="M218.52,131.85h1.9l1.775,3.082,1.775-3.082h1.9L223,136.367v2.653h-1.614v-2.653Z" transform="translate(-153.451 -92.589)"/><path class="a" d="M247.1,137.373a2.5,2.5,0,0,0,.372-.033,1.977,1.977,0,0,0,1.489-1.221,3.157,3.157,0,0,0,0-2.3,1.968,1.968,0,0,0-1.489-1.218,2.16,2.16,0,0,0-.372-.033,2.218,2.218,0,0,0-.375.033,1.962,1.962,0,0,0-1.489,1.218,3.156,3.156,0,0,0,0,2.3,1.974,1.974,0,0,0,1.489,1.221,2.578,2.578,0,0,0,.375.033m-3.8-2.4a3.8,3.8,0,1,1,3.8,3.8,3.8,3.8,0,0,1-3.8-3.8" transform="translate(-170.853 -92.112)"/><path class="a" d="M294.031,135.725l-1.054-2.832-1.057,2.832Zm.5,1.7h-3.052l-.6,1.578H289.1l2.9-7.17h2.007l2.906,7.17H295.13Z" transform="translate(-203.014 -92.575)"/><path class="a" d="M276.161,131.85H270v1.361h2.275v5.81h1.614v-5.81h2.272Z" transform="translate(-189.602 -92.589)"/><path class="a" d="M28.288,47.751H19.406v2.561H14.141V36.135H28.288ZM0,1.88V14.806H14.141v5.187H28.288V14.806H42.429V1.88ZM22.4,21.619,21.2,23.954l-1.191-2.337H14.141v12.9H18.53V31.326l1.62,3.186h2.123l1.617-3.183v3.183h4.4v-12.9H22.4" transform="translate(0 -1.32)"/></g></g></svg>