<svg xmlns="http://www.w3.org/2000/svg" width="140.667" height="41.847" viewBox="0 0 140.667 41.847"><g transform="translate(-74.39 -224.117)"><path d="M170.866,232.5a5.788,5.788,0,0,1,3.491,1.311,3.663,3.663,0,0,1,1.116,2.73c-.037,1.543-.822,2.092-1.561,2.247a9.943,9.943,0,0,0-2.675.377,16.38,16.38,0,0,0-8.682,8.392c-1.18,2.85-.787,5.016.039,6.221a8.045,8.045,0,0,0,5.168,3.085c4.243.881,9.282-.164,10.989-.444a33.221,33.221,0,0,0,7.006-1.9c1.01-.43,1.764-.83,1.913-.6.128.179-.07.477-.667.979a39.96,39.96,0,0,1-9.75,5.922,28.6,28.6,0,0,1-9.43,2.152,14.686,14.686,0,0,1-10.215-3.6c-3.329-3.064-4.163-8.352-2.834-13.154.977-3.507,3.855-9.3,9.558-12.134a12.593,12.593,0,0,1,6.535-1.586" transform="translate(-36.968 -3.869)" fill="#1e2380"/><path d="M213.186,245.925a1.448,1.448,0,0,1,.641-.346,5.819,5.819,0,0,1,2.1,0,3.714,3.714,0,0,1,1.023.483c.106.148.192.405.434.427a.763.763,0,0,0,.5-.127,7.564,7.564,0,0,1,1.321-.507,17.486,17.486,0,0,1,7.074.02c.9.25,1.514.666,1.5,1.153-.02.877-.748.828-.879,1.19a1.8,1.8,0,0,1-.868.627,6.337,6.337,0,0,1-1.625.416,2.958,2.958,0,0,0-.732.134,28.5,28.5,0,0,0-7.066,3.47,17.01,17.01,0,0,0-4.8,5.335c-.339.64-.676,1.183-1.16,1.208a2.833,2.833,0,0,1-1.04-.089,1.212,1.212,0,0,1-.675-1.1,17.823,17.823,0,0,1,1.2-7.212,14.68,14.68,0,0,1,3.046-5.086" transform="translate(-62.327 -9.9)" fill="#1e2380"/><path d="M237,277.311l-.75,1.144a1.04,1.04,0,0,0-1.057-.319.545.545,0,0,0-.28.465.652.652,0,0,0,.394.582,4.915,4.915,0,0,1,1.462.9,2.306,2.306,0,0,1,.488,1.077,2.615,2.615,0,0,1-.173,1.21,1.973,1.973,0,0,1-.937.863,3.61,3.61,0,0,1-2.122.111,2.1,2.1,0,0,1-1.053-.548l.656-1.175a1.711,1.711,0,0,0,1.426.331.681.681,0,0,0,.444-.53.7.7,0,0,0-.521-.677,3.142,3.142,0,0,1-1.645-1.212,2.065,2.065,0,0,1-.16-1.458,1.94,1.94,0,0,1,1.367-1.363,2.659,2.659,0,0,1,2.46.6" transform="translate(-73.48 -24.335)" fill="#1e2380"/><path d="M245.107,283.436h1.71l-1.963-6.422h-1.786L241,283.436h1.723l.31-1.091h1.791Zm-1.71-2.4.562-2.017.525,2.011Z" transform="translate(-77.204 -24.511)" fill="#1e2380"/><path d="M259.335,283.436l.3-1.091h1.8l.283,1.091h1.714l-1.967-6.422h-1.783l-2.07,6.33-1.523-3.35,1.483-2.98h-1.885l-1.393,2.866v-2.866H252.6v6.422h1.688v-3.28l1.424,3.28Zm.662-2.4.561-2.017.531,2.011Z" transform="translate(-82.578 -24.511)" fill="#1e2380"/><path d="M190.075,245.3a5.335,5.335,0,0,1,3.218.873,3.29,3.29,0,0,1,1.141,2.9,4.689,4.689,0,0,1-1.693,3.195A19.041,19.041,0,0,1,186.4,256c-.12.039-.428.176-.008.189a10.747,10.747,0,0,0,5.8-1.842c.367-.282.582-.443.749-.341s.133.564-.05.971a7.082,7.082,0,0,1-2.276,2.59,9.133,9.133,0,0,1-4.926,1.48,5.249,5.249,0,0,1-4.719-2.2c-.036-.054-.051-.089-.192-.081a14.291,14.291,0,0,1-3.214-.3c-.105-.025-.369-.163-.391-.258a.7.7,0,0,1,.007-.355,1.654,1.654,0,0,1,.316-.483.134.134,0,0,0,.036-.127c-.024-.1.156-.3.283-.331a1.723,1.723,0,0,1,.588-.1c.252.026,1.661-.087,1.766-.1s.192,0,.156-.209a5.339,5.339,0,0,1,.1-1.777,10.819,10.819,0,0,1,4.694-6.087,9.853,9.853,0,0,1,4.967-1.34m-5.484,8.137a9.108,9.108,0,0,0,1.375-.676c.654-.451,2.368-1.673,3.021-2.244a3.936,3.936,0,0,0,.988-1.121c.1-.212-.093-.436-.192-.5-.264-.193-.981-.034-1.367.178a14.7,14.7,0,0,0-3.519,2.8,4.026,4.026,0,0,0-.741,1.432c-.051.323.182.241.435.135" transform="translate(-47.614 -9.813)" fill="#1e2380"/><path d="M247.225,245.537a5.356,5.356,0,0,1,3.212.868,3.256,3.256,0,0,1,1.182,2.881,4.88,4.88,0,0,1-1.755,3.254,18.761,18.761,0,0,1-6.319,3.7c-.124.029-.427.17-.013.189a10.865,10.865,0,0,0,5.795-1.853c.361-.277.614-.431.783-.326s.114.588-.075,1a7.216,7.216,0,0,1-2.306,2.622,9.011,9.011,0,0,1-4.911,1.415,5.243,5.243,0,0,1-4.712-2.208c-.029-.053-.048-.087-.192-.078a14.738,14.738,0,0,1-3.215-.292c-.1-.032-.36-.166-.383-.267a.645.645,0,0,1,.006-.353,1.842,1.842,0,0,1,.315-.489c.039-.028.042-.065.031-.119-.023-.107.157-.292.284-.333a1.751,1.751,0,0,1,.592-.09c.249.024,1.655-.1,1.762-.105s.2,0,.156-.212a5.358,5.358,0,0,1,.1-1.775,10.824,10.824,0,0,1,4.7-6.1,10.046,10.046,0,0,1,4.971-1.332m-5.488,8.135a8.163,8.163,0,0,0,1.373-.677c.654-.447,2.37-1.669,3.024-2.24a3.549,3.549,0,0,0,.982-1.124.372.372,0,0,0-.19-.509,1.8,1.8,0,0,0-1.361.182,14.438,14.438,0,0,0-3.521,2.8,3.816,3.816,0,0,0-.744,1.424c-.052.326.182.245.437.141" transform="translate(-74.094 -9.925)" fill="#1e2380"/><path d="M273.16,259.277a4.864,4.864,0,0,1-3.443-1.76,2.926,2.926,0,0,1-.084-2.85,28.793,28.793,0,0,1,5.057-6.122c.215-.166.385-.489-.17-.364-.762.184-2.437.807-3.07.931a2.355,2.355,0,0,1-1.6-.082c-.367-.174-1.077-.594-1.077-1.282,0-.486.258-.566.241-1.166a2.256,2.256,0,0,1,.859-1.614c1.249-.891,5.232-.933,6.209-.834a5.97,5.97,0,0,1,3.9,1.543,2.538,2.538,0,0,1,.85,2.1c-.172.908-.658,1.071-1.054,1.453a20.331,20.331,0,0,0-2.412,2.985,18.492,18.492,0,0,0-1.19,2.05c-.231.591-.122.876.045,1.028a1.1,1.1,0,0,0,1.11.039,22.819,22.819,0,0,0,2.891-1.96,30.769,30.769,0,0,1,8.169-3.912,26.2,26.2,0,0,1,12-.673,6.633,6.633,0,0,1,3.661.991,3.123,3.123,0,0,1,1.059,2.669,3.158,3.158,0,0,1-1.312,2.329c-3.533,3.364-8.391,4.159-12.456,4.078-1.122-.021-2.933-.172-3.424-1.182-.657-1.336.277-2.939,1.1-3.957.1-.127.347-.363-.076-.285-2.647.491-11.1,4.567-12.532,5.214a6.177,6.177,0,0,1-3.257.635m19.353-3.915c.059.236.409.187.687.105,1.534-.415,5.074-1.616,6.659-3.044.227-.2.245-.359.15-.482-.075-.094-.553.024-.685.056a.514.514,0,0,1-.383-.05,1.07,1.07,0,0,1-.516-.508.814.814,0,0,1,0-.459c.056-.219-.064-.272-.346-.152a9.419,9.419,0,0,0-.864.429,28.075,28.075,0,0,0-4.44,3.6c-.088.1-.314.323-.261.5" transform="translate(-90.073 -9.259)" fill="#1e2380"/><path d="M223.315,276.476a3.461,3.461,0,0,1,3.535,3.478,3.4,3.4,0,0,1-3.55,3.467,3.473,3.473,0,0,1,.015-6.945m-1.759,3.486a1.8,1.8,0,1,0,3.606-.042,1.8,1.8,0,1,0-3.606.042" transform="translate(-67.427 -24.262)" fill="#1e2380"/><path d="M114.137,234.839a4.031,4.031,0,0,0-.221-1.662,4.494,4.494,0,0,0-1.991-2.539,4.283,4.283,0,0,0-1.938-.562,3.5,3.5,0,0,0-1.42.326,2.844,2.844,0,0,0-.4-2.634,2.392,2.392,0,0,0-1.679-.876,3.688,3.688,0,0,0-1.271-2.774,1.822,1.822,0,0,1,0,.58,2.183,2.183,0,0,1-1.079,1.376,2.733,2.733,0,0,0-1.039-1.417,2.338,2.338,0,0,0-2.143-.327,1.8,1.8,0,0,1,.439,1.961,6.516,6.516,0,0,1-.3.793,2.356,2.356,0,0,0-.11.753,2.628,2.628,0,0,0-1.723.162,2.535,2.535,0,0,0-3.438-1.474,1.658,1.658,0,1,0-3.117,0A2.537,2.537,0,0,0,89.27,228a2.64,2.64,0,0,0-1.727-.162,2.642,2.642,0,0,0-.1-.753,6.786,6.786,0,0,1-.3-.793,1.8,1.8,0,0,1,.434-1.961,2.337,2.337,0,0,0-2.144.327,2.737,2.737,0,0,0-1.036,1.417,2.181,2.181,0,0,1-1.076-1.376,1.47,1.47,0,0,1,0-.58,3.669,3.669,0,0,0-1.273,2.774,2.4,2.4,0,0,0-1.68.876,2.815,2.815,0,0,0-.4,2.635,3.5,3.5,0,0,0-1.423-.327,4.247,4.247,0,0,0-1.933.562,4.494,4.494,0,0,0-2,2.539,4.083,4.083,0,0,0-.223,1.665,4.588,4.588,0,0,0,2.159,3.621,4.155,4.155,0,0,0-.947,2.878,5.426,5.426,0,0,0,1.768,3.594,1.637,1.637,0,0,0-.532,1.4c.065.341.046.379.135,1.054a2.74,2.74,0,0,1,.069.722,1.385,1.385,0,0,1-.614.985.971.971,0,0,1-.713.207,1.257,1.257,0,0,1-.873-.274,2.335,2.335,0,0,0,.931,1.475,2.558,2.558,0,0,0,1.253.423,3.271,3.271,0,0,0,1.054-.125,3.317,3.317,0,0,1-2.215,2,3.522,3.522,0,0,0,2.07.194c-.54.709-1.589,2.1-1.863,2.465a1.963,1.963,0,0,0-.424,1.558,4.57,4.57,0,0,0,1.221,1.926l1.234-1.265c.617.813.82,2.174,1.766,3.219a1.127,1.127,0,0,0,1.625,0c.229-.21.628-.655.9-.954a31.154,31.154,0,0,0,4.563,3.413,26.794,26.794,0,0,0,7.3,2.607,26.857,26.857,0,0,0,7.314-2.607,31.778,31.778,0,0,0,4.557-3.413c.275.3.673.744.9.954a1.129,1.129,0,0,0,1.627,0c.947-1.044,1.144-2.406,1.762-3.219l1.244,1.265a4.546,4.546,0,0,0,1.215-1.926,1.975,1.975,0,0,0-.424-1.558c-.273-.365-1.327-1.755-1.868-2.465a3.518,3.518,0,0,0,2.071-.194,3.309,3.309,0,0,1-2.21-2,3.354,3.354,0,0,0,1.049.125,2.559,2.559,0,0,0,1.256-.424,2.328,2.328,0,0,0,.931-1.474,1.263,1.263,0,0,1-.873.274.963.963,0,0,1-.711-.207,1.351,1.351,0,0,1-.611-.985,2.686,2.686,0,0,1,.063-.722c.089-.675.075-.713.136-1.054a1.649,1.649,0,0,0-.53-1.407,5.4,5.4,0,0,0,1.756-3.591,4.1,4.1,0,0,0-.939-2.878,4.586,4.586,0,0,0,2.158-3.624m-32.469-5.178a1.056,1.056,0,1,1-1.054,1.056,1.058,1.058,0,0,1,1.054-1.056m-.992,4.994,0,1.734a2.969,2.969,0,0,1-1.523.446,2.5,2.5,0,0,1-1.362-.4,2.764,2.764,0,0,0,2.89-1.782m-3.754.28a.856.856,0,0,1,.762-.926c.423,0,.644.354.644.79,0,.4-.581,1.014-.934,1.3a1.828,1.828,0,0,1-.472-1.166m.884,9.919a3.581,3.581,0,0,1-.122-1.713,2.906,2.906,0,0,1,1.476-2.25,1.862,1.862,0,0,1,.966-.208,2.447,2.447,0,0,0-1.146,1.533,4.054,4.054,0,0,0,.113,2.282,1.7,1.7,0,0,0-1.287.356m3.965,10.093a4.679,4.679,0,0,0-2.807-2.292,4.515,4.515,0,0,0,2.054-2.213,13.208,13.208,0,0,0,1.543,3.645c-.215.238-.589.651-.79.86m.013-20.936a1.85,1.85,0,0,0,.886-.781,3.61,3.61,0,0,0,.722,1.188,13.568,13.568,0,0,1-1.608-.406m5.228.552a3.978,3.978,0,0,1-1.093-.918,2.358,2.358,0,0,1-.546-1.537,1.775,1.775,0,0,1,.691-1.379,3.9,3.9,0,0,0,.622,1,22.534,22.534,0,0,1,1.949,2.472,8.487,8.487,0,0,1-1.623.364m15.6-.918a3.976,3.976,0,0,1-1.091.918A8.5,8.5,0,0,1,99.9,234.2a22.238,22.238,0,0,1,1.954-2.472,4.043,4.043,0,0,0,.619-1,1.791,1.791,0,0,1,.687,1.379,2.353,2.353,0,0,1-.544,1.537m8.136,2.791a2.514,2.514,0,0,1-1.364.4,2.975,2.975,0,0,1-1.525-.446v-1.734a2.76,2.76,0,0,0,2.89,1.782m-3.883-6.777a1.056,1.056,0,1,1-1.056,1.056,1.061,1.061,0,0,1,1.056-1.056m-1,3.57a1.821,1.821,0,0,0,.885.781,13.3,13.3,0,0,1-1.6.406,3.81,3.81,0,0,0,.719-1.188m.9,21.717c-.2-.209-.574-.622-.789-.86a13.46,13.46,0,0,0,1.545-3.645,4.533,4.533,0,0,0,2.045,2.213,4.688,4.688,0,0,0-2.8,2.292m3.964-10.093a1.682,1.682,0,0,0-1.285-.356,4.039,4.039,0,0,0,.106-2.282,2.421,2.421,0,0,0-1.137-1.533,1.833,1.833,0,0,1,.959.208,2.885,2.885,0,0,1,1.476,2.25,3.568,3.568,0,0,1-.119,1.713m.886-9.919a1.853,1.853,0,0,1-.466,1.166c-.365-.288-.94-.9-.94-1.3,0-.436.224-.789.64-.789a.865.865,0,0,1,.767.926" transform="translate(0 0)" fill="#1e2380"/><path d="M104.814,235.279a11.583,11.583,0,0,1,4.168.85,16.977,16.977,0,0,1,2.282-3.4,5.423,5.423,0,0,0,1.093-1.5,1.47,1.47,0,0,0-.125-1.371,1.606,1.606,0,0,0-1.27-.7,2.4,2.4,0,0,0-1.632.523,1.979,1.979,0,0,0-1.9-1.929,2.686,2.686,0,0,0-1.93.779c-.043-.31-.117-.618-.158-.942a1.076,1.076,0,0,0,.463-.94.982.982,0,0,0-1.962,0,1.075,1.075,0,0,0,.457.94c-.046.324-.118.632-.163.942a2.67,2.67,0,0,0-1.924-.779,1.989,1.989,0,0,0-1.916,1.929,2.371,2.371,0,0,0-1.623-.523,1.606,1.606,0,0,0-1.269.7,1.477,1.477,0,0,0-.125,1.371,5.268,5.268,0,0,0,1.094,1.5,16.579,16.579,0,0,1,2.277,3.4,11.606,11.606,0,0,1,4.166-.85" transform="translate(-10.551 -0.737)" fill="#bf9c46"/><path d="M107.8,232.659a3.19,3.19,0,0,0-.848-.559,1.12,1.12,0,0,0-.954.1,1.2,1.2,0,0,0-.486.961,5.622,5.622,0,0,0,.925,2.2,9.675,9.675,0,0,1,.954-.213c.082-.465.356-2.188.41-2.489" transform="translate(-14.419 -3.67)" fill="#1e2380"/><path d="M113.065,232.659a3.237,3.237,0,0,1,.845-.559,1.137,1.137,0,0,1,.962.1,1.186,1.186,0,0,1,.48.961,5.579,5.579,0,0,1-.924,2.2,9.126,9.126,0,0,0-.956-.213c-.083-.465-.354-2.188-.408-2.489" transform="translate(-17.921 -3.67)" fill="#1e2380"/><path d="M102.076,234.936a2.9,2.9,0,0,0,.252.746c.11.211.531,1.1.686,1.311a9.027,9.027,0,0,0-1.074.625c-.277-.387-.848-1.128-1.055-1.348a.98.98,0,0,1-.331-.588.811.811,0,0,1,.785-.958,1.194,1.194,0,0,1,.736.212" transform="translate(-12.119 -4.915)" fill="#1e2380"/><path d="M118.635,234.936a2.641,2.641,0,0,1-.25.746,14.669,14.669,0,0,1-.688,1.311,8.252,8.252,0,0,1,1.073.625c.277-.387.843-1.128,1.055-1.348a.981.981,0,0,0,.333-.588.812.812,0,0,0-.785-.958,1.208,1.208,0,0,0-.738.212" transform="translate(-20.067 -4.915)" fill="#1e2380"/><path d="M88.042,228.309a3.227,3.227,0,0,1,.217-1.966,2.675,2.675,0,0,0,1.907,1.339,2.181,2.181,0,0,1,1.535-2.1c-.448,1.542.571,1.619.372,3.224a2.177,2.177,0,0,0-.895,2.018c0,.02,0,.04,0,.067a2.333,2.333,0,0,0-1.017,1.831,2.727,2.727,0,0,0,.408,1.536,4.476,4.476,0,0,0,.939,1.055,11.876,11.876,0,0,1-1.467-.025,2.444,2.444,0,0,1-1.772-1.979,14.713,14.713,0,0,1,.2-1.969,1.555,1.555,0,0,0-1.408-1.542,1.649,1.649,0,0,0-1.322.509,1.794,1.794,0,0,1,2.3-2" transform="translate(-5.259 -0.678)" fill="#fff"/><path d="M78.348,244.01a3.443,3.443,0,0,0-1.422,2.935,4.237,4.237,0,0,0,.9,2.443,3.458,3.458,0,0,1,1.745-3.219,2.118,2.118,0,0,1,1.738-.106v-3.427a2.815,2.815,0,0,1-1.6.39,2.474,2.474,0,0,1-2.609-2.419,1.232,1.232,0,0,1,1.191-1.338,1.161,1.161,0,0,1,1.126,1.076,1.568,1.568,0,0,1-.623,1.33,2.4,2.4,0,0,0,2.24-2.463,1.714,1.714,0,0,0,.571.152,1.466,1.466,0,0,0,1.437-1.076c.034-.136.021-.424.041-.561a1.514,1.514,0,0,1-1.831-.137,2.548,2.548,0,0,0-2.2-1.116,3.774,3.774,0,0,0-2.651,1.595,4.072,4.072,0,0,0-.678,2.311,4.206,4.206,0,0,0,2.622,3.629" transform="translate(-0.619 -5.726)" fill="#fff"/><path d="M78.723,263.7a1.4,1.4,0,0,1-1.293.6,1.923,1.923,0,0,0,1.131.422,1.818,1.818,0,0,0,1.459-.671,2.191,2.191,0,0,1-.449,2.569c1.528-.344,2.345-1.639,2.582-3.434a10.829,10.829,0,0,1-.063-1.21l.013-6.65a2.352,2.352,0,0,0-1.331,1.959,3.791,3.791,0,0,0,.56,2.3,1.623,1.623,0,0,0-.859-.18,1.788,1.788,0,0,0-1.27.6,1.489,1.489,0,0,0-.331,1.066,5.671,5.671,0,0,1,.193,1.23,2.268,2.268,0,0,1-.341,1.391" transform="translate(-1.408 -14.461)" fill="#fff"/><path d="M129.332,228.309a3.308,3.308,0,0,0-.218-1.966,2.691,2.691,0,0,1-1.917,1.339,2.174,2.174,0,0,0-1.527-2.1c.442,1.542-.575,1.618-.374,3.224a2.176,2.176,0,0,1,.892,2.018c-.005.02-.005.039-.01.067a2.3,2.3,0,0,1,1.019,1.832,2.6,2.6,0,0,1-.408,1.535,4.671,4.671,0,0,1-.933,1.057,12.23,12.23,0,0,0,1.463-.027,2.449,2.449,0,0,0,1.781-1.981,16.508,16.508,0,0,0-.206-1.967A1.553,1.553,0,0,1,130.3,229.8a1.656,1.656,0,0,1,1.323.509,1.793,1.793,0,0,0-2.294-2" transform="translate(-23.576 -0.678)" fill="#fff"/><path d="M140.053,263.7a1.414,1.414,0,0,0,1.3.6,1.912,1.912,0,0,1-1.131.422,1.813,1.813,0,0,1-1.46-.671,2.178,2.178,0,0,0,.449,2.569c-1.528-.344-2.342-1.639-2.58-3.434.039-.393.064-.8.064-1.21l-.016-6.65a2.346,2.346,0,0,1,1.333,1.959,3.765,3.765,0,0,1-.561,2.3,1.58,1.58,0,0,1,.856-.18,1.794,1.794,0,0,1,1.272.6,1.454,1.454,0,0,1,.324,1.066,6.139,6.139,0,0,0-.187,1.23,2.317,2.317,0,0,0,.338,1.391" transform="translate(-28.839 -14.461)" fill="#fff"/><path d="M138.158,244.008a3.47,3.47,0,0,1,1.424,2.935,4.263,4.263,0,0,1-.907,2.443,3.461,3.461,0,0,0-1.748-3.219,2.113,2.113,0,0,0-1.738-.106l0-3.426a2.863,2.863,0,0,0,1.606.389,2.478,2.478,0,0,0,2.609-2.419,1.233,1.233,0,0,0-1.191-1.338,1.17,1.17,0,0,0-1.134,1.076,1.57,1.57,0,0,0,.633,1.33,2.4,2.4,0,0,1-2.243-2.463,1.74,1.74,0,0,1-.573.152,1.462,1.462,0,0,1-1.435-1.076c-.034-.136-.024-.424-.041-.561a1.51,1.51,0,0,0,1.828-.137,2.555,2.555,0,0,1,2.2-1.119,3.794,3.794,0,0,1,2.651,1.6,4.078,4.078,0,0,1,.681,2.311,4.21,4.21,0,0,1-2.622,3.629" transform="translate(-27.351 -5.724)" fill="#fff"/><path d="M95.679,245.4a10.147,10.147,0,0,1,4.6-1.053h.016v26.072a19.055,19.055,0,0,1-8.742-4.573c-1.425-1.456-4.176-4.665-4.176-9.152V243.754a12.906,12.906,0,0,0,7.635.141,8.908,8.908,0,0,1,.666,1.507" transform="translate(-6.018 -9.099)" fill="#fff"/><path d="M88.654,265.272h11.555l.005,14.255a14.745,14.745,0,0,1-2.321-.844L97.9,266H95.581v11.567a11.391,11.391,0,0,1-2.311-1.609V266H90.963v7.3a12.736,12.736,0,0,1-2.067-4.431,9.741,9.741,0,0,1-.241-1.682Z" transform="translate(-6.609 -19.07)" fill="#1e2380"/><path d="M118.514,276.574a.447.447,0,0,0-.047-.393c-.133-.2-1.354-2.5-1.354-2.5l.737-.007a1.536,1.536,0,0,1,.521-1.721l-1.872.008a1.145,1.145,0,0,0-.992.435,1.129,1.129,0,0,0-.09,1.069c.23.419.9,1.681.9,1.681l-1.379.021-.152-.287c.079-.046.147-.081.191-.107a.525.525,0,0,0,.229-.677l-.279-.485a.514.514,0,0,1-.273.474s-.089.049-.22.126l-.123-.231a.489.489,0,0,0-.429-.3.585.585,0,0,0-.26.058c-.066.038-.4.24-.4.24a.461.461,0,0,1,.37.215c.033.048.109.208.2.382-.226.129-.429.244-.506.285a.517.517,0,0,0-.19.612l.257.447a.506.506,0,0,1,.291-.407s.006,0,.006-.007l.328.585a.681.681,0,0,0,.532.414h1.112c.082,0,.164.023.175.083.057.24.173.382.369.382l.455.009a.58.58,0,0,1-.2-.479h.265c.069,0,.123.041.15.136s.118.329.346.329h.473a.492.492,0,0,1-.163-.46l.264,0a.148.148,0,0,1,.153.117c.018.075.09.333.34.333s.474-.006.474-.006a.463.463,0,0,1-.2-.375" transform="translate(-17.913 -22.167)" fill="#da005c"/><path d="M114.48,269.549l-.229.272.772.536.775-.522-.268-.292Z" transform="translate(-18.47 -21.048)" fill="#da005c"/><path d="M113.946,262.486a1.433,1.433,0,0,1,1.611-.128l-.26.293.272.326-.3.282.27.346h-1.58Z" transform="translate(-18.329 -17.632)" fill="#da005c"/><path d="M114.378,260.485a1.534,1.534,0,0,1,.939.324l.537-.575-.544-.613a1.578,1.578,0,0,1-1.86,0l-.547.613.532.575a1.547,1.547,0,0,1,.943-.324" transform="translate(-17.846 -16.452)" fill="#da005c"/><path d="M114.9,247.843l.845,1.313v4.488l-.589.306-.01-4.028-.25-.357-.244.357-.013,4.028-.588-.306v-4.488Z" transform="translate(-18.376 -10.994)" fill="#da005c"/><path d="M122.133,256.936c.033-.212.267-.5.153-.694a.414.414,0,0,0-.206-.135,3.086,3.086,0,0,0-.451,0c-.258,0-.526-.014-.778,0a3.344,3.344,0,0,0-1.351.436,3.139,3.139,0,0,0-1.6,2.239A4.009,4.009,0,0,0,117.86,260a3.954,3.954,0,0,0,1.625-1.792h.521a5.072,5.072,0,0,1-1.72,2.173,4.491,4.491,0,0,1-2.518.926c-.4.026-.892-.012-1.256.027a3.548,3.548,0,0,0,.319.361c-.1.105-.231.266-.319.379.087.113.262.3.319.354-.067.1-.241.274-.319.4.6,0,1.037,0,1.616,0a5.418,5.418,0,0,0,2.7-.9c.106.037.106.068.163.135a.34.34,0,0,1,.061.26c0,.067,0,.1.049.057a2.387,2.387,0,0,0,.369-.356.408.408,0,0,0,.035-.283l-.076-.158a.149.149,0,0,1-.025-.076c.1-.087.207-.177.328-.284a.824.824,0,0,1,.087.094.27.27,0,0,1,.07.254c0,.071.026.089.08.045s.252-.243.318-.325a.342.342,0,0,0,.042-.28.729.729,0,0,0-.122-.238c.109-.106.211-.207.3-.309a.432.432,0,0,1,.243.35c0,.08.023.051.061.011a2.014,2.014,0,0,0,.277-.391.308.308,0,0,0,.018-.187.642.642,0,0,0-.179-.269c.091-.118.168-.232.235-.331a1.138,1.138,0,0,1,.281.46.634.634,0,0,1-.018.52,8.869,8.869,0,0,1-2.51,2.28c.235.414.752,1.36,1.068,1.907a1.13,1.13,0,0,0-1.012,1.012,1.6,1.6,0,0,0,.219.783c.094.158,1.064,1.951,1.064,1.951.154.344.087.5-.053.655-.216.261-1.187,1.191-1.43,1.421l-.213-.2a.54.54,0,0,0-.514-.018c-.084.067-.418.392-.418.392-.069.057-.019.062.053.057a.467.467,0,0,1,.306.047,3.328,3.328,0,0,1,.27.274,2.817,2.817,0,0,0-.3.336.531.531,0,0,0,.07.558,4.8,4.8,0,0,0,.37.369.441.441,0,0,1,.069-.412c.079-.065.338-.333.338-.333s.334.367.409.444a.548.548,0,0,0,.68.012c.089-.074.252-.285.3-.328s.036-.077-.01-.075a.473.473,0,0,1-.433-.129c.023-.028.371-.372.8-.8.066-.069.163.014.263.063a.4.4,0,0,0,.37-.076s.167-.175.221-.224.076-.069.054-.09-.062-.019-.158-.019a.472.472,0,0,1-.246-.146c.065-.067.131-.134.2-.2.1-.111.254-.009.334.037a.412.412,0,0,0,.344-.093s.177-.178.23-.228.068-.06.052-.085-.064-.019-.162-.019c-.071,0-.153-.076-.247-.152.086-.086.167-.165.234-.233a.276.276,0,0,1,.262.035.336.336,0,0,0,.379-.062s.289-.274.325-.3.032-.08-.016-.07h-.149a.393.393,0,0,1-.277-.136c-.217-.4-.993-1.787-1.1-2.031a.3.3,0,0,1,0-.207.429.429,0,0,1,.2-.233,1.191,1.191,0,0,1,.182-.012c.364-.024.844-.023,1.174-.056a1.518,1.518,0,0,0,.961-.834,33.975,33.975,0,0,0,.073-3.791.338.338,0,0,1,.17-.268c.095-.066.236-.066.415-.18a.617.617,0,0,0,.266-.5v-.526c0-.1-.07-.074-.1-.025a.437.437,0,0,1-.084.081.734.734,0,0,1-.389.151.463.463,0,0,0-.279.187c0-.164,0-.317,0-.475a.388.388,0,0,1,.173-.3c.095-.073.236-.073.415-.19a.594.594,0,0,0,.266-.5V258.6c0-.1-.067-.068-.09-.027s-.062.075-.071.091c-.088.111-.3.1-.424.121a.457.457,0,0,0-.274.187v-.35a.484.484,0,0,1,.125-.372.453.453,0,0,1,.313-.169c.172-.005.294-.192.341-.266a.6.6,0,0,0,.076-.361v-.421c0-.093-.053-.069-.086-.023a.57.57,0,0,1-.274.165c-.291.041-.6-.037-.881,0a.95.95,0,0,0-.736.586,1.248,1.248,0,0,0-.052.4c.02.368,0,.751,0,1.12l.011,3.936a1.055,1.055,0,0,1-.025.354s-.072.13-.072.134c-.091.139-.244.114-.448.014a.426.426,0,0,1-.189-.272Z" transform="translate(-18.591 -14.819)" fill="#da005c"/><path d="M119.118,253.15a1.8,1.8,0,0,1-.955-.189.554.554,0,0,1-.266-.6c.022-.046.062-.058.09-.02a.461.461,0,0,0,.284.189c.222.013.458,0,.688,0,.072,0,.191-.037.233.011s.119.2.14.23a.1.1,0,0,1-.018.116,1.378,1.378,0,0,1-.2.265" transform="translate(-20.151 -13.066)" fill="#da005c"/><path d="M126.9,248.479a1,1,0,0,1-.285.188c-.136.041-.279.029-.432.058a.7.7,0,0,0-.462.379,2.273,2.273,0,0,0-.258-.212,1.446,1.446,0,0,1,.5-.5.886.886,0,0,1,.474-.077.582.582,0,0,0,.52-.394c.031-.1.043-.306-.069-.218a.442.442,0,0,1-.082.054.878.878,0,0,1-.244.082,1.577,1.577,0,0,1-.4-.041,1.759,1.759,0,0,0-.433.013,1.474,1.474,0,0,0-.408.138.729.729,0,0,0-.177.133l-1.71.018a.678.678,0,0,0-.662-.335.6.6,0,0,0-.522.363c-.018.051.008.077.065.077a.3.3,0,0,1,.285.3v.547c-.486,0-.977.005-1.471.005a1.778,1.778,0,0,1-.792-.086.458.458,0,0,1-.274-.342c0-.013-.04,0-.054-.013a.955.955,0,0,0-.575.814.844.844,0,0,0,.846.747,4.713,4.713,0,0,1,.3.5c.108-.134.222-.325.323-.445.134-.01.573-.018.573-.018.032.063.221.378.257.44.126-.154.221-.286.343-.44.248-.02.8.005,1.051-.01a2.08,2.08,0,0,0,.233-.014.986.986,0,0,0,.339-.178c.077-.06.114-.2.232-.192.143.009.248-.028.36.152a.456.456,0,0,1,.069.423.554.554,0,0,1-.318.467,6.244,6.244,0,0,1-1.242.036c-.305.021-1.043.01-1.368.01a1.067,1.067,0,0,0-.194-.282c-.055.053-.181.266-.245.29-.112.03-.264-.017-.367.014a.841.841,0,0,0-.614,1.1.685.685,0,0,0,.4.357c.17.057.173-.022.173-.094,0-.231.234-.424.437-.507a2.112,2.112,0,0,1,.66-.054c.495-.013,2.375-.027,2.922-.027a.992.992,0,0,0,.3-.071.611.611,0,0,1,.329.28.512.512,0,0,1,.067.39c-.047.14.043.1.089.074a.557.557,0,0,0,.26-.557.8.8,0,0,0-.219-.442.516.516,0,0,0,.113-.091,1.146,1.146,0,0,0,.089-.087.937.937,0,0,1,.3.265.989.989,0,0,1,.136.4c0,.092.056.082.11.009a.743.743,0,0,0,.109-.494,1.07,1.07,0,0,0-.366-.619,2.255,2.255,0,0,0,.082-.237.811.811,0,0,1,.509.521c.02.082.04.111.059.061a.865.865,0,0,0,.052-.211,1.616,1.616,0,0,0-.445-1.279.933.933,0,0,0,.348-.113,1,1,0,0,0,.439-.642,2.764,2.764,0,0,0,0-.353c0-.034-.024-.052-.057-.027m-3.287.829c-.053-.137-.3-.55-.4-.749a11.348,11.348,0,0,0,1.351.244c-.226.107-.765.406-.949.505" transform="translate(-20.868 -10.917)" fill="#da005c"/><path d="M117.793,262.605l.008,1.09a2.2,2.2,0,0,0,1.039-.378,3.083,3.083,0,0,1-.012-.712Z" transform="translate(-20.112 -17.834)" fill="#da005c"/><path d="M98.443,247.027l-.917.781-.918-.789-.889,1.613,1.807,2.609,1.8-2.609Zm-.917,2.538-.309.437-1-1.432.506-.884.807.688.8-.688.508.884-1,1.432Z" transform="translate(-9.883 -10.612)" fill="#1e2380"/><path d="M91.08,250.962l.461,1.111-1.026.63,1.254,1.342,3.038-.908-1.922-2.526Zm2.136,1.652.323.431-1.678.511-.683-.752.906-.553-.41-.983.994-.21,1.053,1.4Z" transform="translate(-7.472 -12.277)" fill="#1e2380"/><path d="M101.58,250.611l-1.923,2.526,3.034.906,1.256-1.34-1.029-.629.467-1.112Zm-.841,1.852,1.05-1.4,1,.21-.413.977.909.559-.685.752-1.674-.511.323-.431Z" transform="translate(-11.708 -12.277)" fill="#1e2380"/><path d="M92.723,258.868l1.2-.094.284,1.169,1.663-.776.07-3.172-2.99,1.053Zm2.234-1.518.5-.174-.025,1.753-.93.417-.251-1.035L93.2,258.4l.114-1.014,1.65-.569Z" transform="translate(-8.495 -14.771)" fill="#1e2380"/><path d="M101.174,259.934l.285-1.172,1.2.1-.223-1.819-2.989-1.054.068,3.173Zm-.751-2.6-.01-.536,1.656.574.109,1.007-1.058-.087-.246,1.039-.922-.419-.039-1.745Z" transform="translate(-11.608 -14.768)" fill="#1e2380"/><path d="M97.953,250.14l-.309.437-1-1.432.506-.884.807.688.8-.688.508.884-1,1.432Z" transform="translate(-10.31 -11.188)" fill="#da005c"/><path d="M93.789,253l.323.431-1.677.511-.683-.752.906-.553-.41-.983.994-.21,1.053,1.4Z" transform="translate(-8.045 -12.664)" fill="#da005c"/><path d="M102.182,253l-.323.431,1.674.511.685-.752-.909-.559.413-.976-1-.21-1.05,1.4Z" transform="translate(-12.641 -12.664)" fill="#da005c"/><path d="M95.368,258.06l.5-.174-.025,1.752-.93.417-.251-1.036-1.055.091.114-1.014,1.65-.569Z" transform="translate(-8.906 -15.482)" fill="#da005c"/><path d="M100.829,258.043l-.01-.536,1.656.574.109,1.007L101.527,259l-.246,1.039-.922-.419-.039-1.745Z" transform="translate(-12.015 -15.472)" fill="#da005c"/><path d="M86.96,288.2a20.111,20.111,0,0,1-1.332-1.608.416.416,0,0,0-.617-.148.452.452,0,0,0-.017.642,11.528,11.528,0,0,1,1.1.95c.194.2.4.443.383.665.168-.162.355-.348.488-.5" transform="translate(-4.855 -28.842)" fill="#bf9c46"/><path d="M83.412,280.788a4.875,4.875,0,0,0-2.733-2.376c-.327.437-1.859,2.468-1.859,2.468a2.412,2.412,0,0,1,1.3.7,4.3,4.3,0,0,1,1.082,1.7,11.229,11.229,0,0,0,1.053,2.087.672.672,0,0,0,.531.354.463.463,0,0,0,.42-.585,1.456,1.456,0,0,0-.489-.737,9.839,9.839,0,0,0-.821-.679.889.889,0,0,1-.079-1.291c.46-.471,1.6-1.645,1.6-1.645" transform="translate(-2.053 -25.159)" fill="#bf9c46"/><path d="M78.521,285.586c.016.012.042.007.058.012l.9-.9c.01-.013.009-.044.012-.056a1.749,1.749,0,0,0-.421-.38.968.968,0,0,0-.654-.232.381.381,0,0,0-.3.243.57.57,0,0,0-.082.4,1.977,1.977,0,0,0,.486.915" transform="translate(-1.684 -27.759)" fill="#bf9c46"/><path d="M134.074,288.2a17.615,17.615,0,0,0,1.339-1.6.418.418,0,0,1,.62-.149.459.459,0,0,1,.016.642,11.318,11.318,0,0,0-1.1.95,1.093,1.093,0,0,0-.383.665c-.165-.161-.36-.359-.494-.506" transform="translate(-27.656 -28.842)" fill="#bf9c46"/><path d="M135.48,280.788a4.873,4.873,0,0,1,2.731-2.376c.33.437,1.855,2.468,1.855,2.468a2.446,2.446,0,0,0-1.3.7,4.4,4.4,0,0,0-1.078,1.7,11.516,11.516,0,0,1-1.051,2.087.68.68,0,0,1-.538.354.462.462,0,0,1-.418-.585,1.5,1.5,0,0,1,.493-.737,9.315,9.315,0,0,1,.817-.679.891.891,0,0,0,.082-1.291c-.462-.471-1.6-1.645-1.6-1.645" transform="translate(-28.307 -25.159)" fill="#bf9c46"/><path d="M143.07,285.586c-.015.007-.041.007-.055.012l-.9-.9a.217.217,0,0,1-.013-.056,1.939,1.939,0,0,1,.422-.382.969.969,0,0,1,.657-.231.393.393,0,0,1,.3.243.619.619,0,0,1,.08.4,1.759,1.759,0,0,1-.488.915" transform="translate(-31.375 -27.759)" fill="#bf9c46"/><path d="M99.645,291.8a23.9,23.9,0,0,0,7.763-3.008,19.831,19.831,0,0,0,5.461-4.918.53.53,0,0,1,.422-.269l-2.133-2.171a.222.222,0,0,0-.337.019l0,0a16.373,16.373,0,0,1-3.5,3.6,21.527,21.527,0,0,1-7.675,3.606,21.548,21.548,0,0,1-7.667-3.606,16.5,16.5,0,0,1-3.5-3.6v0a.22.22,0,0,0-.334-.019L86.005,283.6a.531.531,0,0,1,.421.269,19.9,19.9,0,0,0,5.465,4.918,23.916,23.916,0,0,0,7.753,3.008" transform="translate(-5.382 -26.526)" fill="#bf9c46"/><path d="M88.922,285.995a1.189,1.189,0,0,0,.436.083c.013,0,.229-.144.233-.15s-.007-.033,0-.042a3.059,3.059,0,0,1-.477-.1.5.5,0,0,1-.179-.177c-.241-.354.163-.8.369-.97a1.065,1.065,0,0,1,.437-.231c.25-.027.5.309.465.532a.488.488,0,0,1-.1.176.5.5,0,0,1-.068.082c-.025.024.028.057.028.057.035,0,.115.012.138-.014.076-.086.184-.2.243-.255.086-.093.216-.127.231-.169,0-.01-.006-.031,0-.04a.884.884,0,0,1-.177-.138c-.05-.069-.074-.149-.123-.218a.846.846,0,0,0-.777-.341,1.5,1.5,0,0,0-1.051.575.875.875,0,0,0-.137.981.681.681,0,0,0,.5.355" transform="translate(-6.454 -27.785)" fill="#1e2380"/><path d="M99.646,291.8c.133.072.323.211.344.344a.749.749,0,0,1-.028.261c.013,0,.027.02.056.013a.414.414,0,0,0,.109-.068c.033-.049.02-.1.04-.163s.067-.168.1-.231c.01-.023.048-.06.055-.083s-.006-.039,0-.054a6.9,6.9,0,0,1-.97-.492c-.086-.049-.3-.231-.422-.219a.231.231,0,0,0-.1.055c-.005.014.008.041,0,.054a.234.234,0,0,1,.1.26,14.05,14.05,0,0,1-.846,1.42c-.071.02-.194.017-.218.08-.006.014.008.029,0,.043.27.164.553.326.832.477a3.328,3.328,0,0,1,.341.19c.023.018.106.116.123.125s.124,0,.13-.019a1.451,1.451,0,0,1,.3-.419s.113-.111.113-.111c.01-.034,0-.058-.013-.067-.089-.031-.183.073-.3.136a.567.567,0,0,1-.615-.136.191.191,0,0,1-.082-.259c.095-.179.272-.471.327-.546.118.034.358.147.383.259a.511.511,0,0,1-.041.246c.068-.005.133.006.178-.056a1.338,1.338,0,0,0,.068-.163,1.856,1.856,0,0,1,.095-.178c.015-.024.061-.051.069-.082,0-.015-.006-.039,0-.054-.069-.018-.179-.018-.26-.041a1.436,1.436,0,0,1-.327-.192,1.753,1.753,0,0,1,.245-.453c.048.024.165.095.216.122" transform="translate(-10.875 -31.041)" fill="#1e2380"/><path d="M92.557,286.945c.115.1.27.275.262.411a.754.754,0,0,1-.083.246c.012,0,.021.025.05.025a.4.4,0,0,0,.122-.042c.043-.041.042-.093.076-.152a2.281,2.281,0,0,1,.143-.205c.015-.02.059-.046.071-.069s0-.038.012-.052a6.787,6.787,0,0,1-.84-.692c-.075-.064-.248-.289-.366-.3a.2.2,0,0,0-.1.033c-.009.012,0,.041-.012.053a.231.231,0,0,1,.037.274,13.738,13.738,0,0,1-1.133,1.2c-.074.006-.193-.026-.231.034-.009.012,0,.03-.009.039.228.218.468.438.71.647a3.052,3.052,0,0,1,.29.261c.02.021.078.139.094.147s.12.032.13.011a1.471,1.471,0,0,1,.387-.345s.134-.082.134-.082c.018-.032.017-.055,0-.071-.079-.048-.194.031-.322.071a.571.571,0,0,1-.57-.267.192.192,0,0,1-.024-.271c.131-.153.368-.4.438-.463.107.06.317.222.317.337a.476.476,0,0,1-.094.23c.068.011.128.036.186-.014a1.084,1.084,0,0,0,.1-.146c.038-.047.086-.106.131-.153.019-.019.07-.037.084-.065s0-.039.01-.053c-.062-.033-.17-.057-.242-.1a1.386,1.386,0,0,1-.28-.257,1.725,1.725,0,0,1,.339-.39c.042.035.14.129.183.167" transform="translate(-7.489 -28.726)" fill="#1e2380"/><path d="M103.383,295.66a2.35,2.35,0,0,0,.151-.3c.037-.069.1-.146.139-.21.006-.011.116-.169.116-.169.008-.017-.1-.03-.143-.005-.064.041-.053.086-.167.181-.231.186-.674-.006-.839-.137.184-.177,1.152-1.016,1.576-1.309.009-.025-.006-.057,0-.083-.018-.012-.011-.029-.027-.041-.048-.033-.1-.019-.163-.04s-.147-.065-.219-.1c-.224-.093-.45-.173-.682-.272-.057-.024-.192-.137-.245-.137a.168.168,0,0,0-.1.056c-.006.007,0,.03,0,.04s-.065.146-.082.178c-.053.094-.116.194-.177.287-.01.014-.05.039-.055.054s.006.041,0,.056c.036,0,.07.018.123,0s.063-.072.095-.109a.377.377,0,0,1,.355-.152,2.234,2.234,0,0,1,.458.172,20.058,20.058,0,0,1-1.645,1.358c.018.046,0,.083.041.109s.074.011.123.028c.089.026.175.06.273.1.071.025.161.082.232.109.155.059.295.1.449.163a1.967,1.967,0,0,1,.232.122c.016.011.041.044.055.055a.132.132,0,0,0,.123,0" transform="translate(-12.726 -31.936)" fill="#1e2380"/><path d="M118.832,295.379a1.854,1.854,0,0,0,.409-.116.83.83,0,0,0,.451-.942.635.635,0,0,0-.437-.45c-.316-.081-.761.167-.9-.1a.3.3,0,0,1-.04-.179c.025-.144.355-.275.56-.206a.551.551,0,0,1,.231.233.207.207,0,0,1,.041,0,.221.221,0,0,0,0-.246,2.379,2.379,0,0,1-.123-.2c-.016-.038-.067-.232-.081-.245s-.045-.005-.054-.014a.873.873,0,0,1-.164.109,2.643,2.643,0,0,0-.478.163.836.836,0,0,0-.309.4.726.726,0,0,0,.049.539.569.569,0,0,0,.287.287c.31.119.889-.137,1,.2a.255.255,0,0,1-.028.206.314.314,0,0,1-.232.164c-.354.1-.506-.1-.655-.287,0,0-.038.011-.04.013a.8.8,0,0,0-.041.15l.026.028c.038.1.091.186.138.287s.1.229.15.34c.027-.014.04,0,.068-.014.042-.016.071-.114.177-.128" transform="translate(-20.164 -31.879)" fill="#1e2380"/><path d="M127.088,288.43a.54.54,0,0,1,.3.041c.152.061.695.491.86.369.037-.027.05-.1.069-.151.005.005.034,0,.041,0a.723.723,0,0,1,.082.165,1.186,1.186,0,0,1-.082.354c-.2.573-.985-.244-1.227-.313-.071-.019-.166-.016-.193.041-.01.022-.028.06-.013.081a4.969,4.969,0,0,0,.5.58c.058.045.12.059.154.038s.1-.07.112-.043c.012.047.074.13.013.162a1.963,1.963,0,0,0-.45.329.785.785,0,0,1-.136.149c-.033.021-.052.009-.1.028a.607.607,0,0,1-.027-.123c0-.054.034-.1.013-.164-.013-.041-.06-.077-.082-.109a10.538,10.538,0,0,0-1-1.2c-.072-.055-.155.02-.218.041l-.014-.041a.328.328,0,0,1-.013-.11c0-.012.029-.03.042-.04.077-.067.175-.113.258-.178s.144-.14.219-.206c.043-.038.092-.072.136-.108,0,.005.049.018.054.027.046.089-.027.153-.013.246a.88.88,0,0,0,.137.218c.009.011.121.15.123.15s.04-.007.054,0a3.53,3.53,0,0,0,.032-.638c-.007-.059-.085-.013-.14-.031a.375.375,0,0,1-.015-.151c.008-.025.321-.243.368-.286s.1-.089.151-.137h.042a.477.477,0,0,1,.013.137c-.011.055-.1.171-.123.245a3.053,3.053,0,0,0-.072.714.287.287,0,0,1,.141-.086" transform="translate(-23.766 -29.333)" fill="#1e2380"/><path d="M131.391,287.091c-.034.042-.058.085-.1.123-.039-.034-.02.02-.056-.041-.044-.077,0-.234-.04-.328-.068-.171-.639-1.341-.727-1.512a.39.39,0,0,0-.144-.142c-.018-.009-.027-.109,0-.12a.938.938,0,0,0,.123-.151c.033-.068.014-.142.041-.218,0,0,.039-.024.041-.026a.959.959,0,0,1,.218.136c.077.044.17.089.245.125l1.2.53a.819.819,0,0,0,.6.07c.03.142.028.18-.083.245a2.836,2.836,0,0,0-.531.532c-.013-.012-.043,0-.054-.014-.057-.048,0-.236-.055-.314a.823.823,0,0,0-.218-.124c-.057-.027-.16-.094-.246-.129-.068.062-.383.362-.422.4s-.028.061,0,.107a1.518,1.518,0,0,0,.218.356c.111.11.232.038.327-.028.035.083.071.167-.013.221a1.505,1.505,0,0,0-.327.3m-.659-1.775.287.6a2.073,2.073,0,0,0,.333-.3s-.538-.269-.62-.3" transform="translate(-25.912 -28.061)" fill="#1e2380"/><path d="M113.344,295.086a.831.831,0,0,1,.485-.163c.637-.034,1.108.8.941,1.486a1.172,1.172,0,0,1-.423.655.844.844,0,0,1-.368.192c-.739.112-1.156-.692-1.092-1.378a1.252,1.252,0,0,1,.457-.792m.758,1.708c.539-.143.169-1.525-.5-1.407a.375.375,0,0,0-.129.052.346.346,0,0,0-.1.1.634.634,0,0,0-.027.422,1.1,1.1,0,0,0,.355.727.5.5,0,0,0,.409.107" transform="translate(-17.835 -32.809)" fill="#1e2380"/><path d="M107.444,294.907a.854.854,0,0,1,.5.114c.56.305.525,1.261.02,1.763a1.2,1.2,0,0,1-.7.335.858.858,0,0,1-.413-.031c-.687-.294-.622-1.2-.206-1.746a1.253,1.253,0,0,1,.8-.435m-.251,1.851c.532.163.942-1.209.308-1.463a.439.439,0,0,0-.137-.024.35.35,0,0,0-.138.032.636.636,0,0,0-.245.345,1.106,1.106,0,0,0-.08.8.5.5,0,0,0,.293.306" transform="translate(-14.799 -32.8)" fill="#1e2380"/><path d="M123.107,293.384c-.044.031-.079.066-.124.092-.03-.041-.025.016-.043-.053-.021-.087.058-.227.048-.327-.021-.182-.255-1.464-.3-1.651a.379.379,0,0,0-.1-.176c-.016-.012,0-.113.028-.115a1.1,1.1,0,0,0,.158-.112c.05-.06.052-.134.1-.2,0,0,.043-.013.046-.016.09.059.111.125.174.19s.141.131.2.184c.339.282.68.559,1.016.833a.792.792,0,0,0,.56.226c-.008.148-.02.183-.144.215a2.849,2.849,0,0,0-.656.372c-.009-.016-.041-.016-.048-.028-.041-.062.068-.225.032-.317-.023-.055-.129-.133-.178-.177a2.68,2.68,0,0,0-.2-.192c-.084.041-.467.246-.516.275s-.043.052-.03.1a1.606,1.606,0,0,0,.115.4c.077.135.215.1.323.061.012.089.025.18-.071.207a1.584,1.584,0,0,0-.4.2m-.16-1.887.115.656a2.063,2.063,0,0,0,.4-.2s-.446-.4-.517-.456" transform="translate(-22.333 -30.911)" fill="#1e2380"/><path d="M94.691,290.6a.257.257,0,0,0-.041.136c-.017.125.071.1.089.17,0,.017-.006.041,0,.056a.179.179,0,0,1-.154.023.59.59,0,0,1-.051-.036c-.065-.049-.119-.1-.178-.149a2.345,2.345,0,0,1-.437-.329.38.38,0,0,1,.11-.069c.062-.013.114,0,.163-.013.082-.034.894-1.188.941-1.255a.258.258,0,0,0,.069-.192c-.009-.038-.062-.08-.082-.109a.187.187,0,0,0,0-.055.4.4,0,0,1,.095-.042c.1,0,.343.258.424.316s.4.252.478.293a.942.942,0,0,1,.2.182.522.522,0,0,1-.231.779,1.224,1.224,0,0,1-.437.028.679.679,0,0,1,.028.218c-.015.145-.219.6-.1.723a.442.442,0,0,0,.2.054.252.252,0,0,0,0,.053,1.225,1.225,0,0,1-.137.109,2.012,2.012,0,0,1-.464.015.23.23,0,0,1-.135-.124c-.2-.341.385-1.094.107-1.269-.045-.027-.049,0-.1-.012-.046.063-.34.45-.374.5m.928-1.22c-.074.092-.149.172-.218.272a.456.456,0,0,0-.075.123c-.018.1.033.12.078.157a.307.307,0,0,0,.194.1.345.345,0,0,0,.314-.383.285.285,0,0,0-.081-.123.815.815,0,0,0-.212-.148" transform="translate(-9.049 -29.945)" fill="#1e2380"/></g></svg>